<?xml version="1.0" encoding="utf-8"?>
<svg xmlns="http://www.w3.org/2000/svg" xmlns:xlink="http://www.w3.org/1999/xlink" style="margin: auto; background: none; display: block; shape-rendering: auto;" width="210px" height="210px" viewBox="0 0 100 100" preserveAspectRatio="xMidYMid">
<g transform="rotate(0 50 50)">
  <rect x="47" y="25.5" rx="3" ry="3.19" width="6" height="11" fill="#295ead">
    <animate attributeName="opacity" values="1;0" keyTimes="0;1" dur="1.0416666666666665s" begin="-0.9259259259259258s" repeatCount="indefinite"></animate>
  </rect>
</g><g transform="rotate(40 50 50)">
  <rect x="47" y="25.5" rx="3" ry="3.19" width="6" height="11" fill="#295ead">
    <animate attributeName="opacity" values="1;0" keyTimes="0;1" dur="1.0416666666666665s" begin="-0.8101851851851851s" repeatCount="indefinite"></animate>
  </rect>
</g><g transform="rotate(80 50 50)">
  <rect x="47" y="25.5" rx="3" ry="3.19" width="6" height="11" fill="#295ead">
    <animate attributeName="opacity" values="1;0" keyTimes="0;1" dur="1.0416666666666665s" begin="-0.6944444444444444s" repeatCount="indefinite"></animate>
  </rect>
</g><g transform="rotate(120 50 50)">
  <rect x="47" y="25.5" rx="3" ry="3.19" width="6" height="11" fill="#295ead">
    <animate attributeName="opacity" values="1;0" keyTimes="0;1" dur="1.0416666666666665s" begin="-0.5787037037037037s" repeatCount="indefinite"></animate>
  </rect>
</g><g transform="rotate(160 50 50)">
  <rect x="47" y="25.5" rx="3" ry="3.19" width="6" height="11" fill="#295ead">
    <animate attributeName="opacity" values="1;0" keyTimes="0;1" dur="1.0416666666666665s" begin="-0.4629629629629629s" repeatCount="indefinite"></animate>
  </rect>
</g><g transform="rotate(200 50 50)">
  <rect x="47" y="25.5" rx="3" ry="3.19" width="6" height="11" fill="#295ead">
    <animate attributeName="opacity" values="1;0" keyTimes="0;1" dur="1.0416666666666665s" begin="-0.3472222222222222s" repeatCount="indefinite"></animate>
  </rect>
</g><g transform="rotate(240 50 50)">
  <rect x="47" y="25.5" rx="3" ry="3.19" width="6" height="11" fill="#295ead">
    <animate attributeName="opacity" values="1;0" keyTimes="0;1" dur="1.0416666666666665s" begin="-0.23148148148148145s" repeatCount="indefinite"></animate>
  </rect>
</g><g transform="rotate(280 50 50)">
  <rect x="47" y="25.5" rx="3" ry="3.19" width="6" height="11" fill="#295ead">
    <animate attributeName="opacity" values="1;0" keyTimes="0;1" dur="1.0416666666666665s" begin="-0.11574074074074073s" repeatCount="indefinite"></animate>
  </rect>
</g><g transform="rotate(320 50 50)">
  <rect x="47" y="25.5" rx="3" ry="3.19" width="6" height="11" fill="#295ead">
    <animate attributeName="opacity" values="1;0" keyTimes="0;1" dur="1.0416666666666665s" begin="0s" repeatCount="indefinite"></animate>
  </rect>
</g>
<!-- [ldio] generated by https://loading.io/ --></svg>